Coordinates
version=1
nRows=14
nColumns=40
inDegrees=yes

Units are S.I. units (second, meters, Newtons, ...)
Angles are in degrees.

endheader
time	pelvis_tilt	pelvis_list	pelvis_rotation	pelvis_tx	pelvis_ty	pelvis_tz	hip_flexion_r	hip_adduction_r	hip_rotation_r	knee_angle_r	knee_angle_r_beta	ankle_angle_r	subtalar_angle_r	mtp_angle_r	hip_flexion_l	hip_adduction_l	hip_rotation_l	knee_angle_l	knee_angle_l_beta	ankle_angle_l	subtalar_angle_l	mtp_angle_l	lumbar_extension	lumbar_bending	lumbar_rotation	arm_flex_r	arm_add_r	arm_rot_r	elbow_flex_r	pro_sup_r	wrist_flex_r	wrist_dev_r	arm_flex_l	arm_add_l	arm_rot_l	elbow_flex_l	pro_sup_l	wrist_flex_l	wrist_dev_l
     33.49414286	     -4.44856470	     -6.58920828	      4.44346985	      1.01542639	      0.92901563	      0.52601248	     10.10908958	      4.75682534	    -15.94742530	     14.11351114	     14.11351114	     10.00382370	     -3.13227604	     -4.95785940	     39.75153828	    -11.92819965	      3.77297604	     52.39713005	     52.39713005	      9.31870762	    -19.19393091	     18.89930327	    -13.28090897	      5.71886791	      2.85038549	     19.99286263	    -20.09554204	      0.08083248	     68.72773601	     44.77266538	      0.00000000	      0.00000000	      0.37481214	     -7.78113104	     -5.44017863	     23.50676341	     46.95272435	      0.00000000	      0.00000000
     33.50578571	     -4.56359638	     -6.51065044	      4.64997857	      1.01453599	      0.92900092	      0.52537532	      9.42427231	      4.72306643	    -16.10919366	     13.57240835	     13.57240835	     10.24867078	     -2.81105735	     -5.00658956	     40.19596954	    -11.08661349	      4.11449275	     48.99147613	     48.99147613	      9.16579698	    -18.98153603	     18.56884755	    -13.21691838	      5.62805200	      2.75717164	     22.40276168	    -20.00045488	     -0.36163988	     71.07070461	     44.73236258	      0.00000000	      0.00000000	     -0.94042144	     -7.67710539	     -5.34194942	     22.70876616	     46.89965602	      0.00000000	      0.00000000
     33.51742857	     -4.73556082	     -6.36210597	      4.77931065	      1.01371651	      0.92886410	      0.52458198	      8.81595343	      4.59425654	    -16.20033266	     13.08302920	     13.08302920	     10.50116239	     -2.48281382	     -5.07110686	     40.50236252	    -10.13812553	      4.58749978	     45.48654698	     45.48654698	      9.07759753	    -18.55313526	     18.41062980	    -13.06055960	      5.41858397	      2.98379219	     24.73876952	    -20.17007706	     -0.70263028	     72.96827361	     44.69650056	      0.00000000	      0.00000000	     -2.10567256	     -7.53096387	     -5.27742483	     22.19043940	     46.85977364	      0.00000000	      0.00000000
     33.52907143	     -4.81227443	     -6.32426232	      4.91806736	      1.01312837	      0.92874175	      0.52362775	      8.02350968	      4.58181636	    -16.50128367	     12.46896666	     12.46896666	     10.75878803	     -1.82574573	     -5.17363217	     40.57846893	     -9.35023300	      5.16804286	     41.92139617	     41.92139617	      8.89230333	    -17.66544305	     17.77125089	    -12.99523004	      5.43148099	      2.95006360	     27.05526341	    -20.03383226	     -0.92383631	     75.51935998	     44.63655442	      0.00000000	      0.00000000	     -3.46347212	     -7.39706197	     -5.17295510	     21.75632731	     46.80327512	      0.00000000	      0.00000000
     33.54071429	     -4.85362998	     -6.45194586	      5.03161377	      1.01286864	      0.92835953	      0.52263304	      7.15431813	      4.72243377	    -17.07486742	     11.81328095	     11.81328095	     11.05495460	     -0.61764161	     -5.33412370	     40.37373882	     -8.89399733	      5.63767743	     38.04656801	     38.04656801	      6.99825848	    -16.66395685	     12.11162486	    -13.01811139	      5.65438075	      3.50238784	     28.53950256	    -20.48610496	     -1.41242265	     79.55864577	     44.61675658	      0.00000000	      0.00000000	     -5.02465679	     -7.40927930	     -3.50424954	     22.60060862	     46.35055660	      0.00000000	      0.00000000
     33.55235714	     -4.90101135	     -6.48469972	      5.08287582	      1.01272169	      0.92800535	      0.52158973	      6.29403326	      4.80582762	    -17.30694643	     11.16291403	     11.16291403	     11.29787921	      0.07961005	     -5.41161019	     40.21964162	     -8.41924733	      6.02664764	     34.66324078	     34.66324078	      7.31580873	    -14.69986190	     12.10135262	    -12.91105234	      5.73063010	      3.64877328	     30.86624433	    -20.30637271	     -1.59931626	     81.48347646	     44.57990895	      0.00000000	      0.00000000	     -6.30290171	     -7.26360744	     -3.29687281	     22.37117819	     46.27566180	      0.00000000	      0.00000000
     33.56400000	     -5.13048169	     -6.72799326	      5.10615017	      1.01258285	      0.92707714	      0.52054402	      5.81051855	      5.06552104	    -17.42517131	     10.82619432	     10.82619432	     11.56452859	      0.42923700	     -5.52752663	     40.29387998	     -8.16508851	      6.48128718	     31.52724423	     31.52724423	      7.50184157	    -12.96361039	     12.32418422	    -12.50048594	      6.03980645	      4.22687077	     33.10769752	    -20.58946298	     -1.92333114	     82.69810125	     44.56358657	      0.00000000	      0.00000000	     -7.37261437	     -7.02566129	     -3.23427765	     22.16450826	     46.23779902	      0.00000000	      0.00000000
     33.57564286	     -4.92348932	     -6.73048828	      5.08022668	      1.01330107	      0.92685732	      0.51944528	      4.38217103	      5.19110051	    -17.80208946	      9.74295502	      9.74295502	     11.80085609	      1.74851638	     -5.53794302	     39.63526735	     -8.00289963	      6.18138758	     28.49291346	     28.49291346	      7.90143444	    -10.63230712	     12.22071795	    -12.64485235	      6.07831621	      4.07392672	     35.28317072	    -19.79021856	     -1.86922184	     85.31259102	     44.49614423	      0.00000000	      0.00000000	     -8.96382792	     -6.90665676	     -3.00456458	     22.36617058	     46.14252144	      0.00000000	      0.00000000
     33.58728571	     -4.88813869	     -7.00924933	      5.05268044	      1.01399854	      0.92598656	      0.51832636	      3.30572078	      5.54400875	    -18.29606234	      8.93697688	      8.93697688	     12.08898705	      3.13048805	     -5.55328595	     39.30397285	     -8.08193616	      5.91994234	     25.93965820	     25.93965820	      8.03250980	     -8.79098236	     12.18278354	    -12.52393955	      6.47179907	      4.25439128	     37.37407076	    -19.47122869	     -1.85823189	     87.52672200	     44.45201851	      0.00000000	      0.00000000	    -10.66429888	     -6.76271691	     -2.57186890	     23.34261829	     45.99226790	      0.00000000	      0.00000000
     33.59892857	     -4.87476958	     -7.19447246	      4.94735807	      1.01488053	      0.92498237	      0.51717222	      2.35281986	      5.78410282	    -18.46633569	      8.37048666	      8.37048666	     12.45648353	      4.00952491	     -5.53018643	     38.84432322	     -8.11365131	      5.45086261	     23.60995506	     23.60995506	      8.03519176	     -7.58953127	     12.50211584	    -12.31162542	      6.71482481	      4.51489944	     39.42365680	    -19.07897951	     -1.88186506	     89.07734436	     44.42823922	      0.00000000	      0.00000000	    -12.12253345	     -6.62934729	     -2.09144115	     23.99331931	     45.85208055	      0.00000000	      0.00000000
     33.61057143	     -4.82135540	     -7.38166196	      4.79354278	      1.01602915	      0.92384851	      0.51600268	      1.41006334	      5.97635521	    -18.77846641	      7.97340632	      7.97340632	     13.06047786	      5.20493102	     -5.04514354	     38.32247730	     -8.21563224	      4.73692635	     21.73582205	     21.73582205	      7.99409874	     -6.81413666	     12.80549943	    -12.12857127	      6.94238377	      4.52168923	     41.55773755	    -18.41902588	     -1.52220212	     90.20842458	     44.47354818	      0.00000000	      0.00000000	    -14.58083878	     -6.92123770	      0.55619091	     26.73151117	     45.28888010	      0.00000000	      0.00000000
     33.62221429	     -4.80428338	     -7.58278484	      4.59370989	      1.01734743	      0.92250164	      0.51483016	      0.52739387	      6.21266828	    -18.62989368	      7.60029753	      7.60029753	     13.44285902	      5.60691326	     -5.09987110	     37.81210154	     -8.35996170	      3.90637077	     20.27629339	     20.27629339	      7.82914717	     -6.52158526	     13.19801772	    -11.84953299	      7.17565444	      4.85424605	     43.38874118	    -17.88800941	     -1.57338461	     91.36209540	     44.45399953	      0.00000000	      0.00000000	    -15.61849576	     -6.74317945	      0.84909526	     26.41609185	     45.22555476	      0.00000000	      0.00000000
     33.63385714	     -4.87934699	     -7.80586626	      4.33910744	      1.01874569	      0.92083577	      0.51360039	     -0.18681846	      6.41884593	    -18.44068822	      7.37806837	      7.37806837	     13.88284181	      6.00078580	     -5.17227746	     37.47504997	     -8.55502526	      2.96461168	     19.39100455	     19.39100455	      7.52394629	     -6.62718878	     13.51172209	    -11.42056812	      7.44630166	      5.27796335	     45.10737128	    -17.48371122	     -1.62424410	     92.31725814	     44.43654415	      0.00000000	      0.00000000	    -16.58191872	     -6.48441889	      1.01601036	     26.23535762	     45.18177098	      0.00000000	      0.00000000
     33.64550000	     -4.82954533	     -7.92976551	      4.08830394	      1.02043297	      0.91928822	      0.51224715	     -1.05908405	      6.50567577	    -18.30949990	      7.17259861	      7.17259861	     14.38804671	      6.47028329	     -5.14903928	     36.88453325	     -8.69055750	      1.92689326	     18.76068011	     18.76068011	      7.09376772	     -6.98893644	     13.71401491	    -11.17031208	      7.57253533	      5.37713117	     46.73152285	    -16.68082295	     -1.49787608	     93.50892038	     44.40722426	      0.00000000	      0.00000000	    -17.62518252	     -6.25306482	      1.23980254	     26.17958937	     45.12622326	      0.00000000	      0.00000000
